<svg width="60" height="57" viewBox="0 0 60 57" fill="none" xmlns="http://www.w3.org/2000/svg">
<path d="M7.3824 31.9761C7.47343 29.7924 8.41721 27.7318 10.0105 26.2446C11.607 24.7545 13.7251 23.9622 15.9012 24.0426C16.4603 24.0391 16.9971 23.8137 17.3946 23.4129C17.7955 23.0087 18.0218 22.4592 18.0218 21.8849C18.0218 21.3107 17.7955 20.7612 17.3946 20.357C16.996 19.955 16.4574 19.7295 15.8967 19.7272C12.5299 19.8123 9.30082 21.0829 6.78304 23.3181L5.7734 24.2144L5.54585 22.8836C5.39571 22.0056 5.30442 21.0905 5.30442 20.1693V20.1514L5.30528 20.1334C5.3963 18.2368 5.87165 16.3466 7.27848 14.8536C8.62132 13.4285 10.7141 12.4697 13.8194 12.1122C14.7615 10.0631 16.0399 8.72748 17.4823 7.96143C19.0132 7.14842 20.6593 7.01378 22.1493 7.26054C23.6336 7.50634 24.9946 8.13463 25.9969 8.89498C26.4985 9.27549 26.9284 9.70282 27.2389 10.1522C27.5357 10.5816 27.7564 11.08 27.7688 11.6036C27.7965 11.8911 27.747 12.1902 27.689 12.434C27.6239 12.7073 27.5294 12.9855 27.4328 13.2318C27.3358 13.4794 27.2312 13.709 27.1399 13.8879C27.0947 13.9765 27.0488 14.0603 27.0055 14.1311C26.9842 14.1658 26.9583 14.2058 26.9294 14.245L26.9283 14.2465C26.9105 14.2705 26.848 14.3551 26.7508 14.4287L26.55 14.5805H26.2984C25.7345 14.5805 25.1924 14.8063 24.7918 15.2103L24.2592 14.6821L24.7918 15.2103C24.3909 15.6145 24.1646 16.164 24.1646 16.7382C24.1646 17.9245 25.1248 18.8884 26.2847 18.8959C27.6336 18.8412 28.9091 18.3267 29.9341 17.4482L30.3606 17.0826L30.8314 17.3891C32.1117 18.2229 33.5816 18.7363 35.1085 18.8994C36.3397 19.0051 37.3101 18.1491 37.3728 16.9885L37.3746 16.9567L37.379 16.9251C37.4181 16.6456 37.4001 16.3611 37.3262 16.089C37.2523 15.8169 37.1241 15.5634 36.9499 15.3437C36.7756 15.1241 36.559 14.9431 36.3137 14.8116C36.0683 14.6801 35.7991 14.6006 35.5227 14.578L35.5065 14.5766L35.4903 14.5746C35.2366 14.5426 34.4504 14.4281 33.7087 14.0411C32.9504 13.6454 32.1233 12.8919 32.1233 11.5915C32.1233 9.86241 31.4737 8.20059 30.3417 6.87337L29.5757 5.97527L30.7142 5.66333C33.6542 4.85776 36.6914 5.93176 39.6076 9.33229C42.0592 8.97013 44.0308 8.943 45.593 9.81763C47.2083 10.722 48.2009 12.4777 48.9896 15.1688C50.226 15.7947 51.2707 16.3925 52.084 17.1974C52.9892 18.0933 53.5662 19.2001 53.9077 20.7655L54.1535 21.892L53.024 21.66C50.0508 21.0493 46.994 21.2983 44.1544 22.3539C43.092 22.7629 42.4843 23.9695 42.8945 25.152C43.2973 26.2565 44.5186 26.8191 45.6284 26.4224C47.9095 25.4216 50.4684 25.363 52.8047 26.2425L52.927 26.2885L53.0265 26.3731C53.6845 26.9329 53.9598 27.7439 54.0869 28.4773C54.2134 29.2064 54.2133 29.987 54.2133 30.6097L54.2133 30.6372C54.2133 33.0375 53.022 35.2853 50.9839 36.59L50.9539 36.6092L50.9223 36.6255C49.2874 37.4653 47.4643 37.9026 45.6355 37.8713L44.3676 37.8497L44.9974 36.749C45.4065 36.034 45.7617 35.2919 46.0631 34.5223C46.2248 33.9667 46.1702 33.3693 45.9102 32.853C45.6463 32.3287 45.192 31.9299 44.6445 31.7384C44.0972 31.5469 43.4977 31.5769 42.9716 31.8222C42.4486 32.066 42.0373 32.5046 41.8248 33.0481C40.5701 36.6377 37.3819 39.0874 33.6469 39.4954L33.587 39.5019L33.5268 39.4988C29.2977 39.2809 25.5363 36.759 23.6891 32.8787L23.6436 32.7831L23.6263 32.6786C23.3332 30.9055 22.519 30.0359 21.4407 29.556C20.2913 29.0444 18.7793 28.9465 17.0324 28.9447C15.7229 29.1256 14.7924 30.102 14.7924 31.306C14.7924 31.8802 15.0187 32.4298 15.4196 32.8339C15.8202 33.2379 16.3623 33.4637 16.9262 33.4637H18.7429H19.2737L19.4502 33.9643C20.3274 36.4518 21.8619 38.6343 23.8893 40.2918L24.9111 41.1271L23.6705 41.5774C23.1425 41.7691 22.5709 41.9103 22.044 42.0405C21.8154 42.0969 21.5952 42.1513 21.3906 42.2069L21.289 42.2344L21.1838 42.233C13.6353 42.1291 10.073 39.7433 8.47479 37.1272C7.69004 35.8426 7.41949 34.5633 7.34383 33.601C7.30595 33.1191 7.31659 32.7131 7.3371 32.42C7.34738 32.2732 7.36012 32.1549 7.37037 32.0705C7.37248 32.053 7.37449 32.037 7.37631 32.0228C7.37875 32.0037 7.38085 31.9879 7.3824 31.9761ZM7.3824 31.9761C7.38201 31.9855 7.38163 31.9948 7.38128 32.0042M7.3824 31.9761C7.38247 31.9756 7.38253 31.9751 7.3826 31.9746L7.38418 31.9625C7.3845 31.96 7.38465 31.9588 7.38468 31.9585L7.38437 31.9613L7.38352 31.9698L7.3835 31.9701C7.38327 31.9724 7.38202 31.9854 7.38128 32.0042M7.38128 32.0042C7.38094 32.0127 7.38073 32.0225 7.38073 32.0329V32.0186L7.38128 32.0042ZM3.31508 32.2946V32.3162L3.31384 32.3377C3.06895 36.5904 5.00087 40.6769 8.4546 43.1723L8.97647 43.5493L8.68282 44.1223L6.46385 48.4518C6.4636 48.4523 6.46335 48.4528 6.4631 48.4533C5.89515 49.5748 5.82638 50.8846 6.31284 52.0373L6.31296 52.0373L6.31799 52.0498C6.7852 53.2152 7.74327 54.1293 8.91231 54.524L11.1848 55.2491L11.1848 55.249L11.198 55.2535C11.9994 55.5257 12.8643 55.542 13.6751 55.3002C14.486 55.0585 15.2042 54.57 15.7312 53.9005L15.7388 53.8909L15.7466 53.8816L21.8601 46.6123L22.0372 46.4017L22.3085 46.3556C24.7455 45.9415 27.0491 44.8916 28.9986 43.3135L29.3074 43.0636L29.6876 43.1786C31.0672 43.5959 32.4358 43.8153 33.7961 43.8153C36.1805 43.8153 38.5663 43.0772 40.5719 41.6562L40.872 41.4436L41.2239 41.5507C42.6732 41.9918 44.1519 42.1857 45.6634 42.158L45.6751 42.1578L45.6868 42.1579C47.8524 42.1856 49.9974 41.7442 52.0123 40.9108C53.9053 40.0569 55.5236 38.6842 56.6828 36.9478C57.844 35.2083 58.4974 33.1741 58.5678 31.0773L58.5687 31.0487L58.5718 31.0203C58.7876 29.0627 58.464 27.0781 57.6282 25.2838L57.4939 24.9955L57.6077 24.6986C58.3824 22.6786 58.462 20.4786 57.803 18.4436C56.7978 15.8544 54.8998 13.6955 52.5394 12.3277L52.296 12.1867L52.2054 11.9204C50.6367 7.31162 46.2369 4.25129 41.431 4.57615L41.1036 4.59828L40.8652 4.37289C36.5128 0.258574 29.8502 -0.17898 25.0106 3.35755L24.7221 3.56838L24.3766 3.47714C23.2246 3.1729 22.0201 3.00768 20.8192 3.00768H20.8109L20.8026 3.0075C17.1162 2.92551 13.6206 4.56437 11.3152 7.49051L11.1595 7.68814L10.9162 7.75189C5.35855 9.20779 1.37029 14.2123 1.15176 20.052L1.15152 20.0574C1.01433 23.1285 1.83723 26.1432 3.51099 28.7162L3.67605 28.97L3.61873 29.2672C3.42451 30.2743 3.31508 31.2732 3.31508 32.2946ZM10.9774 50.6264L10.1776 50.3576L10.5384 49.5948L12.3263 45.8148L12.5836 45.2707L13.1705 45.4041L15.2179 45.8693L16.3799 46.1334L15.6393 47.0668L12.7555 50.7015L12.4282 51.1141L11.929 50.9463L10.9774 50.6264ZM25.3754 24.8546L25.3758 24.8672V24.8799C25.3758 25.9836 26.3328 26.8718 27.526 26.8061L27.5466 26.805H27.5672C28.1891 26.805 28.7967 27.0027 29.2897 27.417L29.361 27.4769L29.4155 27.5524C29.9873 28.3452 30.2205 29.2929 30.2205 30.201C30.2205 31.4019 31.1403 32.3588 32.3542 32.3588C32.9181 32.3588 33.4602 32.133 33.8608 31.729C34.2617 31.3248 34.488 30.7753 34.488 30.201V30.1873L34.4885 30.1735C34.5674 28.0249 33.7806 25.9083 32.2965 24.3751C30.9221 23.1551 29.1407 22.5322 27.3057 22.633C26.7689 22.6846 26.27 22.9402 25.9108 23.35C25.5489 23.7631 25.3567 24.3015 25.3754 24.8546Z" fill="white" stroke="white" stroke-width="1.5"/>
</svg>
