<svg width="225" height="214" viewBox="0 0 225 214" fill="none" xmlns="http://www.w3.org/2000/svg">
<rect width="225" height="214" rx="20" fill="white"/>
<path d="M146.678 59.1286C148.009 38.1013 108.842 33.704 111.596 51.2231C112.167 54.855 113.326 56.7171 115.325 57.0303C119.437 57.6688 121.305 53.7728 119.701 50.5509C112.429 35.9461 73.6348 34.7995 80.7771 57.14C82.7606 63.344 91.7274 62.6369 89.8591 55.6028C82.672 36.7997 51.8082 48.4312 57.6859 72.1566C59.0615 77.7092 61.8207 81.5835 64.9718 81.2426C69.4033 80.7633 71.2169 74.8482 66.9997 72.9208C48.0852 64.2764 27.237 89.0076 43.8893 99.4201C49.2653 102.782 54.4903 96.1382 48.7417 92.5934C34.1375 83.5877 17.7656 123.935 44.7114 123.973C50.1847 123.98 52.9432 119.776 50.1005 116.387C47.6637 113.482 43.7766 113.721 41.0161 117.924C37.2265 123.695 36.8301 128.058 39.4121 133.678C43.997 143.655 66.7252 142.65 67.5252 134.182C67.8729 131.942 65.5502 129.897 63.083 129.514C57.9822 128.808 56.3045 135.2 56.5522 139.028C59.9389 160.61 83.8276 155.839 87.6404 147.645C88.5685 145.26 88.5343 141.889 85.2917 140.964C80.7365 139.944 79.5549 144.706 78.932 147.918C78.1246 152.083 78.8161 156.02 82.6008 158.294C84.3746 159.359 86.1047 160.383 88.1059 160.958C90.8522 161.747 89.9819 161.003 89.804 163.088C89.4809 166.875 91.02 174.893 94.3834 176.649C96.3126 177.656 98.9573 178.719 99.5098 176.467C100.152 162.735 104.292 159.123 116.259 157.523C127.548 155.254 132.097 151.708 134.03 144.508C134.807 141.638 134.481 138.415 134.165 135.498C133.934 133.364 132.836 130.586 131.383 129.008C126.587 123.803 121.305 130.612 127.086 136.119C141.11 148.627 160.612 137.584 158.678 128.392C158.527 127.001 157.01 123.171 155.462 121.333C150.361 115.273 144.29 121.823 148.7 125.964C167.451 143.57 184.46 121.668 177.896 109.7C177.896 109.7 175.09 103.369 170.438 103.489C165.786 103.609 164.879 113.119 175.642 113.54C201.76 115.619 199.19 62.0515 169.497 74.2852C163.558 76.732 164.017 83.9142 170.625 83.3038C175.131 82.8876 178.364 78.3764 177.917 74.2459C178.021 61.5374 162.697 44.8602 142.723 51.3359C138.96 52.5558 136.034 58.338 139.053 61.548C141.288 63.9247 145.76 64.0455 146.678 59.1286Z" stroke="black" stroke-width="5" stroke-linecap="round" stroke-linejoin="round"/>
</svg>
