<svg width="195" height="175" viewBox="0 0 195 175" fill="none" xmlns="http://www.w3.org/2000/svg">
<rect width="194.666" height="175" rx="37" transform="matrix(-1 0 0 1 195 0)" fill="#F6F6F6"/>
<path d="M134.102 39.4961C136.138 18.0341 96.2222 12.2801 98.4768 30.2853C98.9442 34.018 100.07 35.9595 102.104 36.344C106.289 37.129 108.324 33.2044 106.787 29.8579C99.8188 14.6882 60.1805 12.2707 66.7681 35.3476C68.5975 41.7561 77.7906 41.3207 76.1056 34.0669C69.3587 14.6063 37.4209 25.5114 42.6707 49.9642C43.8994 55.687 46.5969 59.7377 49.8305 59.4902C54.378 59.1422 56.4226 53.1511 52.1715 51.0446C33.105 41.597 10.9899 66.2206 27.6861 77.4038C33.0762 81.0141 38.633 74.3877 32.8677 70.5779C18.2209 60.8991 0.182614 101.637 27.739 102.54C33.3364 102.724 36.2923 98.5125 33.4938 94.9554C31.0949 91.9061 27.1119 92.0254 24.1539 96.2358C20.0931 102.016 19.5477 106.466 22.008 112.295C26.3767 122.647 49.6532 122.349 50.7432 113.713C51.1706 111.434 48.8608 109.268 46.3498 108.797C41.1559 107.911 39.235 114.394 39.3655 118.317C42.1366 140.498 66.7207 136.385 70.8829 128.128C71.9087 125.718 71.9819 122.269 68.6953 121.219C64.0695 120.031 62.7082 124.862 61.9681 128.128C61.0087 132.361 61.5896 136.41 65.3872 138.856C67.1672 140.003 68.9036 141.105 70.9318 141.758C73.7152 142.653 72.849 141.864 72.6002 143.99C72.1482 147.853 73.465 156.103 76.8484 158.007C78.789 159.098 81.4597 160.27 82.097 157.984C83.1945 143.961 87.5444 140.4 99.8342 139.148C111.452 137.19 116.218 133.709 118.426 126.408C119.313 123.498 119.083 120.191 118.854 117.198C118.686 115.008 117.652 112.131 116.217 110.472C111.479 104.994 105.859 111.788 111.594 117.606C125.535 130.848 145.834 120.179 144.151 110.716C144.041 109.289 142.613 105.324 141.089 103.394C136.066 97.0328 129.647 103.537 134.025 107.914C152.636 126.521 170.735 104.668 164.405 92.2176C164.405 92.2176 161.738 85.6521 156.977 85.6258C152.216 85.5995 150.983 95.2963 161.977 96.0718C188.621 99.0362 187.712 44.1703 156.952 55.729C150.8 58.0408 151.038 65.4007 157.816 64.9885C162.438 64.7075 165.889 60.1975 165.564 55.9589C166.078 42.9652 150.942 25.4178 130.307 31.3995C126.419 32.5264 123.241 38.3459 126.225 41.7256C128.435 44.228 133.005 44.4951 134.102 39.4961Z" stroke="#191717" stroke-width="7.5" stroke-linecap="round" stroke-linejoin="round"/>
</svg>
